<?xml version="1.0" encoding="utf-8"?>
<!-- Generator: Adobe Illustrator 25.2.0, SVG Export Plug-In . SVG Version: 6.00 Build 0)  -->
<svg version="1.1" id="Layer_1" xmlns="http://www.w3.org/2000/svg" xmlns:xlink="http://www.w3.org/1999/xlink" x="0px" y="0px"
	 viewBox="0 0 2000 2000" style="enable-background:new 0 0 2000 2000;" xml:space="preserve">
<style type="text/css">
	.st0{display:none;fill:#FFFFFF;stroke:#000000;stroke-miterlimit:10;}
	.st1{fill:#915227;}
	.st2{fill:#6E3D1C;}
	.st3{fill:#101010;}
	.st4{fill:#783F19;}
	.st5{fill:url(#SVGID_1_);}
	.st6{fill:#683416;}
	.st7{fill:#6E3D1D;}
	.st8{fill:#C2C2C2;}
	.st9{fill:none;stroke:#6A5945;stroke-miterlimit:10;}
	.st10{fill:#E1B230;}
	.st11{fill:#6A5945;}
	.st12{fill:#F5D74F;}
	.st13{fill:#242621;}
	.st14{fill:#28231F;}
	.st15{fill:#613729;}
	.st16{fill:#83502E;}
	.st17{fill:#96613D;}
	.st18{fill:#4C2E23;}
	.st19{fill:#CE8B54;}
	.st20{fill:#999999;}
	.st21{fill:#44413A;}
	.st22{fill:#EF5C48;}
	.st23{opacity:0.5;}
	.st24{fill:#D1BB84;}
	.st25{fill:url(#SVGID_2_);}
</style>
<rect class="st0" width="2000" height="2000"/>
<g>
	<g>
		<g>
			<g>
				<g>
					<path class="st1" d="M515.58,1098.56h-5.48v-23.68H528v4.4h-12.42V1098.56z M515.18,1085.54h11.37v4.4h-11.37V1085.54z"/>
					<path class="st1" d="M535.1,1098.56v-23.68h5.48v23.68H535.1z"/>
					<path class="st1" d="M549.58,1098.56v-23.68h4.53l13.97,17.05h-2.2v-17.05h5.41v23.68h-4.5l-14.01-17.05h2.2v17.05H549.58z"/>
					<path class="st1" d="M580.3,1098.56v-23.68h10.76c2.57,0,4.84,0.49,6.8,1.47c1.96,0.98,3.5,2.35,4.6,4.11
						c1.11,1.76,1.66,3.85,1.66,6.26c0,2.39-0.55,4.47-1.66,6.24c-1.1,1.77-2.64,3.15-4.6,4.13c-1.96,0.98-4.23,1.47-6.8,1.47H580.3
						z M585.78,1094.06h5.01c1.58,0,2.95-0.3,4.11-0.9c1.16-0.6,2.06-1.45,2.71-2.55c0.64-1.11,0.96-2.4,0.96-3.89
						c0-1.51-0.32-2.81-0.96-3.91c-0.64-1.09-1.55-1.94-2.71-2.54c-1.16-0.6-2.53-0.9-4.11-0.9h-5.01V1094.06z"/>
					<path class="st1" d="M621.47,1098.56l10.56-23.68h5.41l10.59,23.68h-5.75l-8.66-20.91h2.17l-8.69,20.91H621.47z
						 M626.75,1093.49l1.46-4.16h12.18l1.49,4.16H626.75z"/>
					<path class="st1" d="M653.88,1098.56v-23.68h4.53l13.97,17.05h-2.2v-17.05h5.41v23.68h-4.5l-14.01-17.05h2.2v17.05H653.88z"/>
					<path class="st1" d="M703.01,1094.16h12.89v4.4h-18.34v-23.68h17.9v4.4h-12.45V1094.16z M702.6,1084.42H714v4.26h-11.4V1084.42
						z"/>
					<path class="st1" d="M723.64,1098.56v-23.68h5.48v19.22H741v4.47H723.64z"/>
					<path class="st1" d="M752.91,1094.16h12.89v4.4h-18.34v-23.68h17.9v4.4h-12.45V1094.16z M752.5,1084.42h11.4v4.26h-11.4
						V1084.42z"/>
					<path class="st1" d="M784.88,1098.97c-1.83,0-3.52-0.3-5.09-0.9c-1.57-0.6-2.93-1.45-4.08-2.55c-1.15-1.1-2.05-2.4-2.69-3.89
						s-0.96-3.12-0.96-4.91c0-1.78,0.32-3.42,0.96-4.91c0.64-1.49,1.54-2.79,2.71-3.89c1.16-1.11,2.52-1.96,4.08-2.55
						c1.56-0.6,3.26-0.9,5.11-0.9c2.05,0,3.91,0.36,5.57,1.07c1.66,0.71,3.05,1.75,4.18,3.13l-3.52,3.25
						c-0.81-0.92-1.71-1.62-2.71-2.08c-0.99-0.46-2.08-0.69-3.25-0.69c-1.1,0-2.12,0.18-3.04,0.54c-0.93,0.36-1.73,0.88-2.4,1.56
						c-0.68,0.68-1.2,1.48-1.57,2.4c-0.37,0.92-0.56,1.95-0.56,3.08c0,1.13,0.19,2.15,0.56,3.08c0.37,0.92,0.9,1.73,1.57,2.4
						c0.68,0.68,1.48,1.2,2.4,1.56c0.92,0.36,1.94,0.54,3.04,0.54c1.17,0,2.26-0.23,3.25-0.69c0.99-0.46,1.89-1.17,2.71-2.11
						l3.52,3.25c-1.13,1.38-2.52,2.42-4.18,3.15C788.82,1098.61,786.95,1098.97,784.88,1098.97z"/>
					<path class="st1" d="M806.39,1098.56v-19.22h-7.58v-4.47h20.64v4.47h-7.58v19.22H806.39z"/>
					<path class="st1" d="M825.78,1098.56v-23.68h10.25c2.12,0,3.95,0.34,5.48,1.03c1.53,0.69,2.72,1.67,3.55,2.96
						c0.83,1.29,1.25,2.82,1.25,4.6c0,1.76-0.42,3.28-1.25,4.55c-0.83,1.27-2.02,2.25-3.55,2.93c-1.53,0.68-3.36,1.01-5.48,1.01
						h-7.21l2.44-2.4v9H825.78z M831.26,1090.17l-2.44-2.57h6.9c1.69,0,2.95-0.37,3.79-1.1c0.83-0.73,1.25-1.74,1.25-3.03
						c0-1.31-0.42-2.32-1.25-3.04c-0.83-0.72-2.1-1.08-3.79-1.08h-6.9l2.44-2.6V1090.17z M840.83,1098.56l-5.92-8.59h5.85l5.99,8.59
						H840.83z"/>
					<path class="st1" d="M854.03,1098.56v-23.68h5.48v23.68H854.03z"/>
					<path class="st1" d="M879.84,1098.97c-1.83,0-3.52-0.3-5.09-0.9c-1.57-0.6-2.93-1.45-4.08-2.55c-1.15-1.1-2.05-2.4-2.69-3.89
						c-0.64-1.49-0.96-3.12-0.96-4.91c0-1.78,0.32-3.42,0.96-4.91c0.64-1.49,1.54-2.79,2.71-3.89c1.16-1.11,2.52-1.96,4.08-2.55
						c1.56-0.6,3.26-0.9,5.11-0.9c2.05,0,3.91,0.36,5.57,1.07c1.66,0.71,3.05,1.75,4.18,3.13l-3.52,3.25
						c-0.81-0.92-1.71-1.62-2.71-2.08c-0.99-0.46-2.08-0.69-3.25-0.69c-1.1,0-2.12,0.18-3.04,0.54c-0.93,0.36-1.73,0.88-2.4,1.56
						c-0.68,0.68-1.2,1.48-1.57,2.4s-0.56,1.95-0.56,3.08c0,1.13,0.19,2.15,0.56,3.08c0.37,0.92,0.9,1.73,1.57,2.4
						c0.68,0.68,1.48,1.2,2.4,1.56c0.92,0.36,1.94,0.54,3.04,0.54c1.17,0,2.26-0.23,3.25-0.69c0.99-0.46,1.89-1.17,2.71-2.11
						l3.52,3.25c-1.13,1.38-2.52,2.42-4.18,3.15C883.78,1098.61,881.91,1098.97,879.84,1098.97z"/>
					<path class="st1" d="M909.64,1098.56v-23.68h10.25c2.12,0,3.95,0.34,5.48,1.03c1.53,0.69,2.72,1.67,3.55,2.96
						c0.83,1.29,1.25,2.82,1.25,4.6c0,1.76-0.42,3.28-1.25,4.57c-0.83,1.29-2.02,2.27-3.55,2.96c-1.53,0.69-3.36,1.03-5.48,1.03
						h-7.21l2.44-2.47v9H909.64z M915.12,1090.17l-2.44-2.6h6.9c1.69,0,2.95-0.36,3.79-1.08c0.83-0.72,1.25-1.72,1.25-3.01
						c0-1.31-0.42-2.32-1.25-3.04c-0.83-0.72-2.1-1.08-3.79-1.08h-6.9l2.44-2.6V1090.17z"/>
					<path class="st1" d="M937.45,1098.56v-23.68h5.48v19.22h11.88v4.47H937.45z"/>
					<path class="st1" d="M958.29,1098.56l10.56-23.68h5.41l10.59,23.68h-5.75l-8.66-20.91h2.17l-8.69,20.91H958.29z
						 M963.57,1093.49l1.46-4.16h12.18l1.49,4.16H963.57z"/>
					<path class="st1" d="M990.7,1098.56v-23.68h4.53l13.97,17.05h-2.2v-17.05h5.41v23.68h-4.5l-14.01-17.05h2.2v17.05H990.7z"/>
					<path class="st1" d="M1039.28,1098.56v-19.22h-7.58v-4.47h20.64v4.47h-7.58v19.22H1039.28z"/>
					<path class="st1" d="M1064.15,1098.56h-5.48v-23.68h5.48V1098.56z M1075.31,1088.85h-11.57v-4.63h11.57V1088.85z
						 M1074.91,1074.88h5.48v23.68h-5.48V1074.88z"/>
					<path class="st1" d="M1086.28,1098.56l10.56-23.68h5.41l10.59,23.68h-5.75l-8.66-20.91h2.17l-8.69,20.91H1086.28z
						 M1091.55,1093.49l1.45-4.16h12.18l1.49,4.16H1091.55z"/>
					<path class="st1" d="M1122.41,1098.56v-19.22h-7.58v-4.47h20.64v4.47h-7.58v19.22H1122.41z"/>
					<path class="st1" d="M1154.75,1098.56v-23.68h4.53l10.08,16.71h-2.4l9.91-16.71h4.5l0.07,23.68h-5.14l-0.03-15.8h0.95
						l-7.92,13.3h-2.47l-8.09-13.3h1.15v15.8H1154.75z"/>
					<path class="st1" d="M1187.33,1098.56l10.56-23.68h5.41l10.59,23.68h-5.75l-8.66-20.91h2.17l-8.7,20.91H1187.33z
						 M1192.61,1093.49l1.45-4.16h12.18l1.49,4.16H1192.61z"/>
					<path class="st1" d="M1223.46,1098.56v-19.22h-7.58v-4.47h20.64v4.47h-7.58v19.22H1223.46z"/>
					<path class="st1" d="M1253.84,1098.97c-1.83,0-3.52-0.3-5.09-0.9c-1.57-0.6-2.93-1.45-4.08-2.55c-1.15-1.1-2.05-2.4-2.69-3.89
						c-0.64-1.49-0.96-3.12-0.96-4.91c0-1.78,0.32-3.42,0.96-4.91c0.64-1.49,1.54-2.79,2.71-3.89c1.16-1.11,2.52-1.96,4.08-2.55
						c1.56-0.6,3.26-0.9,5.11-0.9c2.05,0,3.91,0.36,5.56,1.07c1.66,0.71,3.05,1.75,4.18,3.13l-3.52,3.25
						c-0.81-0.92-1.71-1.62-2.71-2.08c-0.99-0.46-2.07-0.69-3.25-0.69c-1.1,0-2.12,0.18-3.04,0.54c-0.93,0.36-1.73,0.88-2.4,1.56
						c-0.68,0.68-1.2,1.48-1.57,2.4c-0.37,0.92-0.56,1.95-0.56,3.08c0,1.13,0.19,2.15,0.56,3.08c0.37,0.92,0.9,1.73,1.57,2.4
						c0.68,0.68,1.48,1.2,2.4,1.56c0.92,0.36,1.94,0.54,3.04,0.54c1.17,0,2.26-0.23,3.25-0.69c0.99-0.46,1.89-1.17,2.71-2.11
						l3.52,3.25c-1.13,1.38-2.52,2.42-4.18,3.15C1257.78,1098.61,1255.92,1098.97,1253.84,1098.97z"/>
					<path class="st1" d="M1276.17,1098.56h-5.48v-23.68h5.48V1098.56z M1287.33,1088.85h-11.57v-4.63h11.57V1088.85z
						 M1286.93,1074.88h5.48v23.68h-5.48V1074.88z"/>
					<path class="st1" d="M1306.85,1094.16h12.89v4.4h-18.34v-23.68h17.9v4.4h-12.45V1094.16z M1306.45,1084.42h11.4v4.26h-11.4
						V1084.42z"/>
					<path class="st1" d="M1335.27,1098.97c-1.89,0-3.71-0.25-5.45-0.76c-1.74-0.51-3.14-1.17-4.19-1.98l1.86-4.13
						c1.01,0.72,2.22,1.31,3.6,1.78c1.39,0.46,2.79,0.69,4.21,0.69c1.08,0,1.96-0.11,2.62-0.32c0.67-0.21,1.16-0.51,1.47-0.9
						c0.32-0.38,0.47-0.82,0.47-1.32c0-0.63-0.25-1.13-0.74-1.51c-0.5-0.37-1.15-0.68-1.96-0.91c-0.81-0.24-1.71-0.46-2.69-0.68
						c-0.98-0.21-1.96-0.48-2.94-0.79c-0.98-0.32-1.88-0.72-2.69-1.22c-0.81-0.5-1.47-1.15-1.98-1.96
						c-0.51-0.81-0.76-1.85-0.76-3.11c0-1.35,0.37-2.59,1.1-3.7c0.73-1.12,1.84-2.01,3.32-2.67c1.48-0.67,3.33-1,5.56-1
						c1.49,0,2.96,0.18,4.4,0.52c1.44,0.35,2.72,0.87,3.82,1.57l-1.69,4.16c-1.11-0.63-2.21-1.1-3.31-1.4
						c-1.11-0.3-2.19-0.46-3.25-0.46c-1.06,0-1.93,0.12-2.6,0.37c-0.68,0.25-1.16,0.57-1.45,0.96c-0.29,0.4-0.44,0.85-0.44,1.37
						c0,0.61,0.25,1.1,0.74,1.47c0.5,0.37,1.15,0.67,1.96,0.9c0.81,0.23,1.71,0.45,2.69,0.68c0.98,0.23,1.96,0.49,2.94,0.78
						c0.98,0.29,1.88,0.69,2.69,1.18c0.81,0.5,1.47,1.15,1.98,1.96c0.51,0.81,0.76,1.84,0.76,3.08c0,1.33-0.37,2.55-1.12,3.65
						c-0.74,1.11-1.86,2-3.33,2.67C1339.39,1098.63,1337.53,1098.97,1335.27,1098.97z"/>
					<path class="st1" d="M1371.3,1098.56v-9.68l1.25,3.32l-10.42-17.32h5.82l7.98,13.3h-3.35l8.02-13.3h5.38l-10.42,17.32
						l1.22-3.32v9.68H1371.3z"/>
					<path class="st1" d="M1402.16,1098.97c-1.87,0-3.6-0.3-5.19-0.91c-1.59-0.61-2.97-1.47-4.13-2.57c-1.16-1.1-2.06-2.4-2.71-3.89
						c-0.64-1.49-0.96-3.11-0.96-4.87s0.32-3.38,0.96-4.87c0.64-1.49,1.55-2.79,2.72-3.89c1.17-1.1,2.55-1.96,4.13-2.57
						c1.58-0.61,3.29-0.91,5.14-0.91c1.87,0,3.59,0.3,5.16,0.91c1.57,0.61,2.93,1.47,4.09,2.57c1.16,1.11,2.07,2.4,2.72,3.87
						c0.65,1.48,0.98,3.11,0.98,4.89c0,1.76-0.33,3.39-0.98,4.89c-0.65,1.5-1.56,2.8-2.72,3.89c-1.16,1.09-2.53,1.95-4.09,2.55
						C1405.71,1098.66,1404.01,1098.97,1402.16,1098.97z M1402.12,1094.3c1.06,0,2.04-0.18,2.93-0.54c0.89-0.36,1.67-0.88,2.35-1.56
						c0.68-0.68,1.2-1.48,1.57-2.4c0.37-0.92,0.56-1.95,0.56-3.08c0-1.13-0.19-2.15-0.56-3.08s-0.89-1.73-1.56-2.4
						s-1.45-1.19-2.35-1.56c-0.9-0.36-1.88-0.54-2.94-0.54c-1.06,0-2.04,0.18-2.93,0.54c-0.89,0.36-1.67,0.88-2.35,1.56
						c-0.68,0.68-1.2,1.48-1.57,2.4c-0.37,0.92-0.56,1.95-0.56,3.08c0,1.11,0.19,2.13,0.56,3.06c0.37,0.94,0.89,1.74,1.56,2.42
						c0.67,0.68,1.45,1.2,2.35,1.56C1400.08,1094.12,1401.06,1094.3,1402.12,1094.3z"/>
					<path class="st1" d="M1433.11,1098.97c-3.36,0-5.99-0.94-7.88-2.81s-2.84-4.55-2.84-8.02v-13.26h5.48v13.06
						c0,2.26,0.46,3.88,1.39,4.87c0.92,0.99,2.22,1.49,3.89,1.49c1.67,0,2.97-0.5,3.89-1.49c0.93-0.99,1.39-2.62,1.39-4.87v-13.06
						h5.41v13.26c0,3.47-0.95,6.15-2.84,8.02C1439.1,1098.03,1436.47,1098.97,1433.11,1098.97z"/>
					<path class="st1" d="M1452.63,1098.56v-23.68h10.25c2.12,0,3.95,0.34,5.48,1.03c1.53,0.69,2.72,1.67,3.55,2.96
						c0.83,1.29,1.25,2.82,1.25,4.6c0,1.76-0.42,3.28-1.25,4.55c-0.84,1.27-2.02,2.25-3.55,2.93c-1.53,0.68-3.36,1.01-5.48,1.01
						h-7.21l2.44-2.4v9H1452.63z M1458.11,1090.17l-2.44-2.57h6.9c1.69,0,2.96-0.37,3.79-1.1c0.83-0.73,1.25-1.74,1.25-3.03
						c0-1.31-0.42-2.32-1.25-3.04s-2.1-1.08-3.79-1.08h-6.9l2.44-2.6V1090.17z M1467.69,1098.56l-5.92-8.59h5.85l5.99,8.59H1467.69z
						"/>
					<path class="st1" d="M1504.36,1098.97c-3.36,0-5.99-0.94-7.88-2.81s-2.84-4.55-2.84-8.02v-13.26h5.48v13.06
						c0,2.26,0.46,3.88,1.39,4.87c0.93,0.99,2.22,1.49,3.89,1.49c1.67,0,2.96-0.5,3.89-1.49c0.92-0.99,1.39-2.62,1.39-4.87v-13.06
						h5.41v13.26c0,3.47-0.95,6.15-2.84,8.02S1507.72,1098.97,1504.36,1098.97z"/>
					<path class="st1" d="M1531.66,1098.97c-1.89,0-3.71-0.25-5.45-0.76c-1.74-0.51-3.14-1.17-4.19-1.98l1.86-4.13
						c1.01,0.72,2.22,1.31,3.6,1.78c1.39,0.46,2.79,0.69,4.21,0.69c1.08,0,1.96-0.11,2.62-0.32c0.67-0.21,1.16-0.51,1.47-0.9
						c0.32-0.38,0.47-0.82,0.47-1.32c0-0.63-0.25-1.13-0.74-1.51c-0.5-0.37-1.15-0.68-1.96-0.91c-0.81-0.24-1.71-0.46-2.69-0.68
						c-0.98-0.21-1.96-0.48-2.94-0.79c-0.98-0.32-1.88-0.72-2.69-1.22c-0.81-0.5-1.47-1.15-1.98-1.96
						c-0.51-0.81-0.76-1.85-0.76-3.11c0-1.35,0.37-2.59,1.1-3.7c0.73-1.12,1.84-2.01,3.32-2.67c1.48-0.67,3.33-1,5.56-1
						c1.49,0,2.96,0.18,4.4,0.52c1.44,0.35,2.72,0.87,3.82,1.57l-1.69,4.16c-1.11-0.63-2.21-1.1-3.31-1.4
						c-1.11-0.3-2.19-0.46-3.25-0.46s-1.93,0.12-2.6,0.37c-0.68,0.25-1.16,0.57-1.45,0.96c-0.29,0.4-0.44,0.85-0.44,1.37
						c0,0.61,0.25,1.1,0.74,1.47c0.5,0.37,1.15,0.67,1.96,0.9c0.81,0.23,1.71,0.45,2.69,0.68c0.98,0.23,1.96,0.49,2.94,0.78
						c0.98,0.29,1.88,0.69,2.69,1.18c0.81,0.5,1.47,1.15,1.98,1.96c0.51,0.81,0.76,1.84,0.76,3.08c0,1.33-0.37,2.55-1.12,3.65
						c-0.74,1.11-1.86,2-3.33,2.67C1535.78,1098.63,1533.92,1098.97,1531.66,1098.97z"/>
					<path class="st1" d="M1545.73,1098.56l10.56-23.68h5.41l10.59,23.68h-5.75l-8.66-20.91h2.16l-8.69,20.91H1545.73z
						 M1551.01,1093.49l1.46-4.16h12.18l1.49,4.16H1551.01z"/>
					<path class="st1" d="M1589.24,1098.97c-1.87,0-3.59-0.3-5.16-0.9c-1.57-0.6-2.93-1.45-4.09-2.55c-1.16-1.1-2.06-2.4-2.71-3.89
						c-0.64-1.49-0.96-3.12-0.96-4.91c0-1.78,0.32-3.42,0.96-4.91c0.64-1.49,1.55-2.79,2.72-3.89c1.17-1.11,2.55-1.96,4.13-2.55
						s3.32-0.9,5.21-0.9c2.1,0,3.99,0.35,5.67,1.05c1.68,0.7,3.1,1.71,4.25,3.05l-3.52,3.25c-0.86-0.9-1.79-1.57-2.81-2.01
						c-1.01-0.44-2.12-0.66-3.31-0.66c-1.15,0-2.2,0.18-3.15,0.54c-0.95,0.36-1.77,0.88-2.45,1.56c-0.69,0.68-1.22,1.48-1.59,2.4
						c-0.37,0.92-0.56,1.95-0.56,3.08c0,1.11,0.19,2.12,0.56,3.05c0.37,0.92,0.9,1.73,1.59,2.42c0.69,0.69,1.5,1.21,2.44,1.57
						c0.93,0.36,1.97,0.54,3.09,0.54c1.08,0,2.14-0.17,3.16-0.52c1.02-0.35,2.02-0.94,2.99-1.78l3.11,3.96
						c-1.29,0.97-2.78,1.71-4.48,2.23C1592.63,1098.71,1590.93,1098.97,1589.24,1098.97z M1593.81,1095.24v-8.9h5.01v9.61
						L1593.81,1095.24z"/>
					<path class="st1" d="M1612.72,1094.16h12.89v4.4h-18.34v-23.68h17.9v4.4h-12.45V1094.16z M1612.31,1084.42h11.4v4.26h-11.4
						V1084.42z"/>
				</g>
				<g>
					<path class="st2" d="M527.05,1050.96v-49.24h-19.42v-11.44h52.88v11.44H541.1v49.24H527.05z"/>
					<path class="st2" d="M594.15,1039.7h33.03v11.27H580.2v-60.68h45.86v11.27h-31.9V1039.7z M593.11,1014.73h29.22v10.92h-29.22
						V1014.73z"/>
					<path class="st2" d="M642.96,1050.96l26.09-35.98v10.23l-24.97-34.94h15.95l17.25,24.36l-6.68,0.09l16.99-24.45h15.26
						l-24.79,34.33v-10.06l26.27,36.41h-16.21l-17.86-25.75h6.42l-17.6,25.75H642.96z"/>
					<path class="st2" d="M712.84,1050.96l27.05-60.68h13.87l27.14,60.68h-14.74l-22.19-53.58h5.55l-22.28,53.58H712.84z
						 M726.36,1037.96l3.73-10.66h31.21l3.81,10.66H726.36z"/>
					<path class="st2" d="M819.29,1052.01c-4.86,0-9.51-0.65-13.96-1.95c-4.45-1.3-8.03-2.99-10.75-5.07l4.77-10.58
						c2.6,1.85,5.68,3.37,9.23,4.55c3.55,1.18,7.15,1.78,10.79,1.78c2.77,0,5.01-0.27,6.72-0.82c1.7-0.55,2.96-1.31,3.77-2.3
						c0.81-0.98,1.21-2.11,1.21-3.38c0-1.62-0.64-2.9-1.91-3.86s-2.95-1.73-5.03-2.34c-2.08-0.61-4.38-1.18-6.89-1.73
						c-2.51-0.55-5.03-1.23-7.54-2.04c-2.51-0.81-4.81-1.85-6.89-3.12c-2.08-1.27-3.77-2.95-5.07-5.03
						c-1.3-2.08-1.95-4.74-1.95-7.98c0-3.47,0.94-6.63,2.82-9.49c1.88-2.86,4.71-5.14,8.5-6.85c3.78-1.7,8.54-2.56,14.26-2.56
						c3.81,0,7.57,0.45,11.27,1.34c3.7,0.9,6.96,2.24,9.8,4.03l-4.33,10.66c-2.83-1.62-5.66-2.82-8.5-3.6
						c-2.83-0.78-5.61-1.17-8.32-1.17c-2.72,0-4.94,0.32-6.68,0.95c-1.73,0.64-2.98,1.46-3.73,2.47c-0.75,1.01-1.13,2.18-1.13,3.51
						c0,1.56,0.64,2.82,1.91,3.77c1.27,0.95,2.95,1.72,5.03,2.3c2.08,0.58,4.38,1.16,6.89,1.73c2.51,0.58,5.03,1.24,7.54,1.99
						c2.51,0.75,4.81,1.76,6.89,3.03c2.08,1.27,3.77,2.95,5.07,5.03c1.3,2.08,1.95,4.71,1.95,7.89c0,3.41-0.95,6.53-2.86,9.36
						c-1.91,2.83-4.75,5.11-8.54,6.85C829.85,1051.14,825.07,1052.01,819.29,1052.01z"/>
					<path class="st2" d="M903.47,1050.96v-60.68h26.27c5.43,0,10.11,0.88,14.04,2.64c3.93,1.76,6.96,4.29,9.1,7.59
						c2.14,3.29,3.21,7.22,3.21,11.79c0,4.51-1.07,8.4-3.21,11.66c-2.14,3.27-5.17,5.77-9.1,7.5c-3.93,1.73-8.61,2.6-14.04,2.6
						h-18.47l6.24-6.16v23.06H903.47z M917.51,1029.47l-6.24-6.59h17.69c4.33,0,7.57-0.94,9.71-2.82c2.14-1.88,3.21-4.46,3.21-7.76
						c0-3.35-1.07-5.95-3.21-7.8c-2.14-1.85-5.38-2.77-9.71-2.77h-17.69l6.24-6.67V1029.47z M942.05,1050.96l-15.17-22.02h15
						l15.34,22.02H942.05z"/>
					<path class="st2" d="M971.35,1050.96l27.05-60.68h13.87l27.14,60.68h-14.74l-22.19-53.58h5.55l-22.28,53.58H971.35z
						 M984.87,1037.96l3.73-10.66h31.21l3.81,10.66H984.87z"/>
					<path class="st2" d="M1067.4,1050.96v-49.24h-19.42v-11.44h52.88v11.44h-19.42v49.24H1067.4z"/>
					<path class="st2" d="M1134.5,1039.7h33.03v11.27h-46.99v-60.68h45.86v11.27h-31.9V1039.7z M1133.46,1014.73h29.21v10.92h-29.21
						V1014.73z"/>
					<path class="st2" d="M1241.57,1050.96h-14.04v-60.68h45.86v11.27h-31.82V1050.96z M1240.53,1017.59h29.13v11.27h-29.13V1017.59
						z"/>
					<path class="st2" d="M1295.05,1050.96v-60.68h14.04v60.68H1295.05z"/>
					<path class="st2" d="M1335.62,1050.96v-60.68h11.62l35.8,43.69h-5.63v-43.69h13.87v60.68h-11.53l-35.89-43.69h5.64v43.69
						H1335.62z"/>
					<path class="st2" d="M1417.81,1050.96v-60.68h27.57c6.59,0,12.4,1.26,17.43,3.77c5.03,2.51,8.96,6.02,11.79,10.53
						c2.83,4.51,4.25,9.85,4.25,16.04c0,6.13-1.42,11.46-4.25,15.99c-2.83,4.54-6.76,8.06-11.79,10.58
						c-5.03,2.51-10.84,3.77-17.43,3.77H1417.81z M1431.85,1039.43h12.83c4.05,0,7.56-0.77,10.53-2.3c2.98-1.53,5.29-3.71,6.94-6.55
						c1.65-2.83,2.47-6.16,2.47-9.97c0-3.87-0.82-7.21-2.47-10.01c-1.65-2.8-3.96-4.97-6.94-6.5c-2.98-1.53-6.49-2.3-10.53-2.3
						h-12.83V1039.43z"/>
					<path class="st2" d="M1515.51,1039.7h33.03v11.27h-46.99v-60.68h45.86v11.27h-31.9V1039.7z M1514.47,1014.73h29.22v10.92
						h-29.22V1014.73z"/>
					<path class="st2" d="M1571.86,1050.96v-60.68h26.27c5.43,0,10.11,0.88,14.04,2.64c3.93,1.76,6.96,4.29,9.1,7.59
						c2.14,3.29,3.21,7.22,3.21,11.79c0,4.51-1.07,8.4-3.21,11.66c-2.14,3.27-5.17,5.77-9.1,7.5c-3.93,1.73-8.61,2.6-14.04,2.6
						h-18.47l6.24-6.16v23.06H1571.86z M1585.9,1029.47l-6.24-6.59h17.69c4.33,0,7.57-0.94,9.71-2.82c2.14-1.88,3.21-4.46,3.21-7.76
						c0-3.35-1.07-5.95-3.21-7.8c-2.14-1.85-5.37-2.77-9.71-2.77h-17.69l6.24-6.67V1029.47z M1610.44,1050.96l-15.17-22.02h15
						l15.34,22.02H1610.44z"/>
				</g>
			</g>
		</g>
	</g>
	<g>
		<g>
			<path class="st3" d="M464.14,1119.03c-1.42,0-2.7-0.07-3.8-0.19c-3.36-0.39-5.48-1.29-6.29-2.68c-0.11-0.18-0.19-0.37-0.24-0.55
				l-3.08,0.5l-0.21-0.06c-0.42-0.12-4.14-1.22-5.57-2.09c-1.55-0.95-1.29-3.49-1.12-5.18c0.04-0.38,0.08-0.71,0.07-0.91
				c-0.02-0.67,0.14-1.18,0.39-1.54c-0.2-1.46-0.12-4.3,0.49-6.24c0.17-0.53,0.28-1.05,0.35-1.57l0.02-0.19
				c0.09-0.85,0.08-1.7,0.06-2.76c-0.01-0.44-0.01-0.92-0.01-1.43c0-2.61-0.93-13.78-1.65-19.01c-0.56-1.69-0.49-3.04,0.2-4.02
				c0.61-0.86,1.64-1.36,3.06-1.47c0.28-0.36,0.71-0.6,1.23-0.69c-1.98-4.14-6.48-8.06-10.38-11.12h-12.69
				c-3.9,3.06-8.4,6.98-10.38,11.13c0.53,0.1,0.95,0.33,1.23,0.69c1.43,0.12,2.46,0.61,3.06,1.47c0.69,0.98,0.75,2.33,0.2,4.02
				c-0.71,5.24-1.65,16.41-1.65,19.01c0,0.51-0.01,0.99-0.01,1.43c-0.02,1.06-0.03,1.91,0.06,2.76l0.02,0.19
				c0.07,0.53,0.18,1.04,0.35,1.58c0.61,1.95,0.69,4.8,0.49,6.24c0.24,0.36,0.41,0.86,0.39,1.54c-0.01,0.2,0.03,0.53,0.07,0.91
				c0.17,1.68,0.43,4.23-1.12,5.18c-1.43,0.87-5.15,1.97-5.57,2.09l-0.21,0.06l-3.08-0.5c-0.06,0.18-0.14,0.36-0.24,0.55
				c-0.81,1.38-2.93,2.29-6.29,2.68c-1.1,0.13-2.37,0.19-3.8,0.19c-1.9,0-16.11-0.69-16.46-3.25l-0.02-0.13l0.02-0.13
				c0.11-0.83,0.58-1.5,1.24-1.85c0.17-1.11,1.22-2.72,5.15-4.31c1.53-0.62,3.07-1.24,4.36-2.14c0.95-0.67,1.73-1.54,2.55-2.47
				c0.37-0.42,0.74-0.83,1.12-1.23c1.65-1.71,2.72-3.35,3.17-4.87c0.14-0.46,0.23-0.95,0.29-1.46c0.13-1.32,0-2.71-0.16-4.02
				l-0.05-0.38c-0.48-3.69-0.94-12.85-0.99-13.89c0-0.02,0-0.04,0-0.05c-1.08-2.1-1.86-6.39,2.1-9.3c0.17-0.54,0.54-0.79,0.78-0.97
				c0.34-0.24,0.75-0.42,1.24-0.54c0.26-0.06,0.53-0.11,0.82-0.14c1.43-4.48,4.65-8.68,7.38-11.67c-0.94-0.97-1.46-2.23-1.46-3.56
				v-0.91c0-0.7,0.14-1.39,0.41-2.02c-2.63-0.21-4.71-2.42-4.71-5.11v-0.91c0-2.24,1.43-4.16,3.5-4.85
				c-0.14-7.29-1.98-14.54-5.36-21.16c0.13,0.66,0.11,1.37-0.07,2.05l-0.17,0.62c-0.28,1.11-1.09,2.19-2.11,2.9
				c0.48,1,0.57,2.17,0.23,3.27c-0.34,1.09-1.1,1.99-2.09,2.5c0.03,0.45-0.01,0.92-0.12,1.39c-0.39,1.38-1.39,2.46-2.65,2.93
				l-2.14,10.31l-11.89-2.98l2.9-9.84l-0.09-0.03c-2.16-0.65-3.42-3.01-2.81-5.27c0.01-0.04,0.02-0.07,0.03-0.11
				c-2.87-2.28-6.13-6.27-6.68-12.8c-0.86-10.07,6.6-16.06,10.42-18.36c-1.19-3.09-2.74-5.99-3.67-9.21
				c-1.33-4.63-1.82-9.48-1.85-14.28c-0.04-6.01,0.98-11.88,3.02-17.49l-0.52-0.54c-2.36-2.44-3.61-5.41-3.61-8.57
				c0-0.64,0.06-1.29,0.17-1.94c-0.14,0.03-5.32,1.36-5.32,1.36l3.07-4.02c2.64-3.46,6.98-6.68,12.57-9.34
				c-0.01-0.34-0.02-0.69-0.02-1.04c0-11.19,4.33-21.73,12.18-29.69c5.08-5.15,11.28-8.86,18.11-10.86c-1.34-0.48-2.55-1.2-3.18-2.3
				c-0.43-0.74-0.77-1.97,0.03-3.63c0.57-1.18,1.59-1.81,2.96-1.81c2.91,0,6.9,2.95,8.53,4.27c0.85-0.73,1.92-1.13,3.05-1.13
				s2.21,0.4,3.05,1.13c1.63-1.31,5.62-4.27,8.53-4.27c1.37,0,2.39,0.63,2.96,1.81c0.78,1.63,0.46,2.84,0.06,3.57
				c-0.54,0.98-1.53,1.67-2.69,2.15c7.1,1.95,13.54,5.73,18.8,11.06c7.85,7.96,12.18,18.5,12.18,29.69c0,0.35-0.01,0.69-0.02,1.04
				c5.67,2.69,9.9,5.83,12.57,9.34l3.08,4.04c0,0-5.1-1.33-5.2-1.35c0.13,0.7,0.2,1.41,0.2,2.1c0,3.8-1.9,7.45-5.21,10.02
				l-0.49,0.38c1.64,5.04,2.48,10.3,2.48,15.68c0,9.64-2.71,18.98-7.84,27.08c6.57,5.06,11.8,13.07,14.48,17.71
				c3.23,1.09,5.4,2.74,6.47,4.89c0.68,1.37,0.88,2.88,0.6,4.5c1.62,1.32,4.53,4.18,5.51,8.35c0.78,1.73,1.93,6.21,0.71,9.71
				c-0.53,1.5-1.46,2.68-2.69,3.45c-0.15,0.34-0.34,0.71-0.58,1.1c-0.52,0.87-1.47,2.04-3,2.67c-0.55,0.26-1.2,0.42-1.91,0.45
				c-0.39,0.34-1.05,0.85-1.94,1.31c-1.17,0.65-2.44,1.01-3.73,1.06l-0.18-0.01c-0.12,0.09-0.23,0.16-0.36,0.24
				c-0.8,0.52-1.84,0.8-3.04,0.8c-0.6,0-1.23-0.07-1.9-0.21c-0.5-0.11-1.04-0.25-1.62-0.45c-4.03-1.48-3.7-5.05-3.54-6.77
				c0.04-0.41,0.07-0.83,0.08-1.18c-0.81-0.1-2.11-0.42-3.27-1.37c-0.13-0.07-0.34-0.27-0.55-0.47c-1.43-1.49-2.02-3.65-1.78-6.44
				c0.54-5.67,3.61-9.91,5.23-11.78c-0.31-1.55-0.66-4.91,1.42-7.52c-2.51-3.87-6.52-9.17-9.83-12.98c-0.3,0.33-0.6,0.65-0.91,0.97
				c-8.78,9.12-13.72,20.9-13.95,33.25c2.07,0.69,3.5,2.61,3.5,4.85v0.91c0,2.69-2.08,4.9-4.72,5.11c0.27,0.63,0.41,1.31,0.41,2.02
				v0.91c0,1.34-0.53,2.62-1.44,3.57c2.73,2.98,5.95,7.19,7.38,11.67c0.3,0.03,0.57,0.07,0.82,0.14c0.5,0.12,0.9,0.3,1.24,0.54
				c0.25,0.18,0.62,0.44,0.79,0.97c3.95,2.91,3.17,7.2,2.1,9.29c0,0.03,0,0.06-0.01,0.09c-0.05,0.99-0.5,10.16-0.99,13.85
				l-0.05,0.38c-0.16,1.3-0.29,2.7-0.16,4.02c0.05,0.51,0.15,1,0.29,1.46c0.45,1.52,1.52,3.16,3.17,4.87
				c0.39,0.4,0.76,0.81,1.12,1.23c0.82,0.93,1.6,1.8,2.55,2.47c1.29,0.9,2.83,1.52,4.32,2.12c3.95,1.59,5.01,3.21,5.19,4.32
				c0.65,0.35,1.12,0.99,1.22,1.76l0.02,0.13l0,0.22C480.26,1118.35,466.05,1119.03,464.14,1119.03z"/>
			<g>
				<path class="st4" d="M434.69,886.53c0,0,8.68-7.53,10.69-3.34c2.01,4.19-4.16,5.72-9.9,5.47"/>
			</g>
			<g>
				<path class="st4" d="M428.7,886.53c0,0-8.68-7.53-10.69-3.34c-2.01,4.19,4.16,5.72,9.9,5.47"/>
			</g>
			<radialGradient id="SVGID_1_" cx="431.3181" cy="985.2681" r="45.3328" gradientUnits="userSpaceOnUse">
				<stop  offset="0" style="stop-color:#F5D7CF"/>
				<stop  offset="1" style="stop-color:#F5D74F"/>
			</radialGradient>
			<path class="st5" d="M481.04,970.5c0,13.4-5.3,25.55-13.9,34.48c-9.03,9.38-14.23,21.79-14.23,34.81v1.37h-43.18v-1.36
				c0-13.06-5.26-25.47-14.3-34.89c-8.5-8.86-13.74-20.86-13.83-34.08c-0.04-6.72,1.27-13.16,3.7-19.04
				c1.89-4.6,4.46-8.87,7.57-12.68c8.89-10.86,22.26-17.96,37.26-18.31c16.11-0.38,30.54,6.91,39.89,18.48
				c3.32,4.1,5.99,8.75,7.88,13.78C479.93,958.48,481.04,964.36,481.04,970.5z"/>
			<g>
				<g>
					<circle class="st6" cx="431.69" cy="888.85" r="3.79"/>
				</g>
			</g>
			<g>
				<g>
					<g>
						<path class="st7" d="M431.69,888.74c-12.7,0.51-23.02,16.91-23.92,37.6c-5.99,1.27-11.38,2.98-15.95,5.05
							c-0.04-0.7-0.06-1.41-0.06-2.13C391.77,907.07,409.59,889.06,431.69,888.74z"/>
						<path class="st3" d="M391.09,932.6l-0.06-1.17c-0.04-0.71-0.06-1.45-0.06-2.18c0-10.93,4.23-21.24,11.9-29.02
							c7.67-7.77,17.9-12.14,28.81-12.3l0.04,1.61c-12.11,0.48-22.28,16.66-23.15,36.84l-0.03,0.62l-0.61,0.13
							c-5.93,1.26-11.24,2.94-15.79,4.99L391.09,932.6z M423.27,890.58c-17.54,4.12-30.69,19.99-30.69,38.68
							c0,0.31,0,0.61,0.01,0.92c4.24-1.82,9.08-3.33,14.42-4.49C407.85,909.41,414.34,896.04,423.27,890.58z"/>
					</g>
				</g>
				<g>
					<g>
						<path class="st7" d="M472.83,929.26c0,0.72-0.02,1.43-0.06,2.13c-4.57-2.07-9.97-3.78-15.95-5.05
							c-0.89-20.69-11.21-37.09-23.92-37.6C455.01,889.06,472.83,907.07,472.83,929.26z"/>
						<path class="st3" d="M473.51,932.6l-1.07-0.48c-4.55-2.06-9.86-3.74-15.79-4.99l-0.61-0.13l-0.03-0.62
							c-0.87-20.17-11.04-36.35-23.15-36.84l0.04-1.61c10.91,0.16,21.14,4.53,28.81,12.3c7.68,7.78,11.9,18.09,11.9,29.02
							c0,0.73-0.02,1.46-0.06,2.18L473.51,932.6z M457.59,925.68c5.34,1.17,10.18,2.67,14.42,4.49c0.01-0.31,0.01-0.61,0.01-0.92
							c0-18.69-13.16-34.55-30.69-38.68C450.26,896.04,456.75,909.41,457.59,925.68z"/>
					</g>
				</g>
				<g>
					<g>
						<path class="st1" d="M456.82,926.34c-7.41-1.57-15.73-2.44-24.52-2.44c-8.79,0-17.11,0.88-24.52,2.44
							c0.89-20.69,11.21-37.09,23.92-37.6c0.2,0,0.4-0.01,0.61-0.01c0.2,0,0.41,0,0.61,0.01
							C445.61,889.24,455.93,905.65,456.82,926.34z"/>
						<path class="st3" d="M406.93,927.34l0.04-1.03c0.92-21.35,11.53-37.84,24.69-38.37c0.44-0.01,0.85-0.01,1.26,0
							c13.17,0.53,23.78,17.02,24.7,38.37l0.04,1.03l-1.01-0.21c-7.62-1.61-15.82-2.42-24.36-2.42c-8.54,0-16.74,0.82-24.36,2.42
							L406.93,927.34z M432.3,923.09c8.27,0,16.23,0.76,23.67,2.25c-1.16-19.69-11.19-35.33-23.09-35.8c-0.36-0.01-0.78-0.01-1.16,0
							c-11.89,0.48-21.92,16.12-23.08,35.8C416.07,923.85,424.02,923.09,432.3,923.09z"/>
					</g>
				</g>
			</g>
			<g>
				<g>
					<path class="st7" d="M483.46,944.43c0,3.4-1.74,6.47-4.53,8.63c-1.88-5.03-4.56-9.68-7.88-13.78c0.53-0.07,1.07-0.13,1.61-0.17
						c3.32-0.24,6.74,0.12,9.61,0.61C483.04,941.16,483.46,942.75,483.46,944.43z"/>
					<path class="st3" d="M478.56,954.36l-0.38-1.02c-1.84-4.91-4.45-9.47-7.75-13.56l-0.89-1.1l1.41-0.2
						c0.55-0.08,1.11-0.13,1.67-0.17c2.89-0.21,6.19,0,9.8,0.62l0.39,0.07l0.18,0.35c0.85,1.6,1.28,3.31,1.28,5.09
						c0,3.51-1.76,6.88-4.84,9.26L478.56,954.36z M472.58,939.92c2.76,3.62,5,7.58,6.69,11.8c2.19-2.01,3.38-4.57,3.38-7.29
						c0-1.38-0.31-2.72-0.92-3.98c-3.33-0.55-6.36-0.73-9.02-0.54C472.68,939.91,472.63,939.92,472.58,939.92z"/>
				</g>
			</g>
			<g>
				<g>
					<path class="st7" d="M391.98,938.91c-3.11,3.81-5.68,8.08-7.57,12.68c-1.95-2.02-3.11-4.57-3.11-7.35
						c0-1.67,0.42-3.26,1.19-4.7C385.32,939.04,388.7,938.68,391.98,938.91z"/>
					<path class="st3" d="M384.68,953.03l-0.85-0.88c-2.18-2.26-3.34-5-3.34-7.91c0-1.77,0.43-3.48,1.28-5.08l0.18-0.35l0.39-0.07
						c3.56-0.62,6.82-0.83,9.69-0.63l1.55,0.11l-0.98,1.2c-3.1,3.78-5.6,7.98-7.45,12.48L384.68,953.03z M383.01,940.25
						c-0.61,1.26-0.92,2.6-0.92,3.98c0,2.1,0.71,4.11,2.07,5.86c1.64-3.71,3.72-7.22,6.2-10.45
						C388.13,939.61,385.66,939.81,383.01,940.25z"/>
				</g>
			</g>
			<g>
				<g>
					<path class="st8" d="M453.04,1048.35H409.6c-2.04,0-3.69-1.65-3.69-3.69v-0.94c0-2.04,1.65-3.69,3.69-3.69h43.44
						c2.04,0,3.69,1.65,3.69,3.69v0.94C456.73,1046.7,455.08,1048.35,453.04,1048.35z"/>
					<path class="st3" d="M453.04,1049H409.6c-2.39,0-4.33-1.94-4.33-4.33v-0.94c0-2.39,1.94-4.33,4.33-4.33h43.44
						c2.39,0,4.33,1.94,4.33,4.33v0.94C457.37,1047.05,455.43,1049,453.04,1049z M409.6,1040.67c-1.68,0-3.05,1.37-3.05,3.05v0.94
						c0,1.68,1.37,3.05,3.05,3.05h43.44c1.68,0,3.05-1.37,3.05-3.05v-0.94c0-1.68-1.37-3.05-3.05-3.05H409.6z"/>
				</g>
			</g>
			<g>
				<g>
					
						<ellipse transform="matrix(0.7071 -0.7071 0.7071 0.7071 -568.0844 620.2391)" class="st10" cx="464.65" cy="995.86" rx="4.22" ry="1.38"/>
				</g>
			</g>
			<g>
				<g>
					<path class="st11" d="M489.49,1018.83c0,0-10.33-20.78-23.2-24.36c-0.6-0.17-1.25-0.09-1.76,0.27
						c-1.08,0.76-2.38,2.44,0.86,5.11c4.63,3.82,16.59,19.79,16.41,22.1L489.49,1018.83z"/>
				</g>
			</g>
			<g>
				<g>
					<path class="st10" d="M500.3,1033.35c-0.97-4.28-4.18-7.16-5.66-8.28c0.4-1.63,0.26-3.14-0.4-4.47
						c-0.96-1.95-2.97-3.42-5.95-4.42c-2.1-0.69-4.26-0.69-6.05-0.01c-4.69,1.76-4.78,6.48-4.07,9.27
						c-1.33,1.46-4.76,5.73-5.32,11.59c-0.21,2.47,0.27,4.39,1.5,5.67c0.16,0.16,0.32,0.31,0.49,0.42c1.11,0.92,2.41,1.17,3.23,1.2
						c0.09,0.02,0.19,0.02,0.26,0.01c0.18,0.5,0.13,1.19,0.04,2.16c-0.17,1.8-0.4,4.56,2.9,5.78c0.54,0.19,1.04,0.32,1.51,0.42
						c2.11,0.45,3.45,0.04,4.27-0.49c0.22-0.12,0.37-0.26,0.52-0.37c0.14,0.01,0.29,0.01,0.45,0.02c1.15-0.04,2.26-0.36,3.33-0.96
						c0.93-0.48,1.63-1.05,2-1.41c0.72,0.01,1.36-0.12,1.92-0.39c1.27-0.53,2.1-1.54,2.55-2.29c0.3-0.49,0.51-0.93,0.63-1.27
						c1.18-0.64,2.06-1.71,2.55-3.11C502.15,1039.19,501,1034.83,500.3,1033.35z"/>
				</g>
			</g>
			<g>
				<g>
					<path class="st12" d="M498.77,1041.66c-0.32,0.95-0.87,1.58-1.7,1.94l-0.06,0.04l-0.48,0.19l-0.17,0.55
						c0,0-0.17,0.57-0.55,1.21c-0.11,0.17-0.25,0.38-0.43,0.56c-0.26,0.31-0.59,0.6-1.04,0.79c-0.37,0.16-0.8,0.22-1.29,0.16
						l-0.28-0.04l0,0.02l-0.31-0.04l-0.63,0.66c-0.12,0.1-0.3,0.27-0.56,0.46c-0.29,0.21-0.62,0.42-1.03,0.65
						c-0.74,0.42-1.52,0.64-2.18,0.67l-0.09-0.02c-0.24-0.03-0.45-0.02-0.71-0.06l-0.59-0.05l-0.14-0.01l-0.42,0.61
						c0,0-0.1,0.12-0.3,0.25c-0.34,0.22-1.42,0.64-3.69-0.18c-1.48-0.54-1.54-1.27-1.37-3.32c0.1-1.14,0.22-2.4-0.29-3.5
						c-0.15-0.32-0.33-0.6-0.59-0.88l-0.49-0.54c-0.02,0-0.02,0-0.05,0.01l-0.67,0.17c-0.49,0.02-1.74-0.03-2.57-0.89
						c-0.73-0.79-1.04-2.06-0.85-3.84c0.56-6.22,5.05-10.59,5.08-10.63l0.55-0.51l-0.23-0.73c-0.08-0.21-1.79-5.42,2.44-7.01
						c1.29-0.47,2.88-0.47,4.49,0.07c1.61,0.51,3.72,1.52,4.54,3.2c0.51,1,0.51,2.14,0.05,3.5l-0.29,0.88l0.76,0.5
						c0.04,0.03,4.39,2.88,5.37,7.47l0.12,0.34C498.54,1035.05,499.69,1039.03,498.77,1041.66z"/>
				</g>
			</g>
			<g>
				<g>
					<path class="st13" d="M401.81,1002.8l-1.19,5.73l-0.59,2.84l-1.32,6.31l-0.59,2.84l-4.57,22.01l-9.97-2.5l6.35-21.56l0.82-2.79
						l1.82-6.19l0.82-2.79l1.65-5.61c0.36,0.16,0.73,0.3,1.1,0.44c0.72,0.25,1.46,0.48,2.22,0.67c0.75,0.19,1.52,0.35,2.27,0.46
						C401.03,1002.72,401.42,1002.77,401.81,1002.8z"/>
				</g>
			</g>
			<g>
				<g>
					<path class="st13" d="M401.7,1011.79l-10.79-2.7c-0.23-0.06-0.38-0.3-0.32-0.53l0.49-1.97c0.06-0.23,0.3-0.38,0.53-0.32
						l10.79,2.7c0.23,0.06,0.38,0.3,0.32,0.53l-0.49,1.97C402.17,1011.7,401.93,1011.85,401.7,1011.79z"/>
				</g>
			</g>
			<g>
				<g>
					<path class="st13" d="M399.43,1020.85l-10.79-2.7c-0.23-0.06-0.38-0.3-0.32-0.53l0.49-1.97c0.06-0.23,0.3-0.38,0.53-0.32
						l10.79,2.7c0.23,0.06,0.38,0.3,0.32,0.53l-0.49,1.97C399.9,1020.77,399.66,1020.91,399.43,1020.85z"/>
				</g>
			</g>
			<g>
				<g>
					<g>
						<path class="st11" d="M393.05,1022.54l-0.67,6.14c-1.4-0.15-3.18-0.58-5.04-1.37c-4.73-2.03-9.95-6.44-10.65-14.71
							c-0.78-9.21,5.12-14.84,10.11-17.5c0.95,1.1,2.01,2.11,3.17,3.02c0.4,0.6,0.81,1.19,1.23,1.76c-2.34,0.95-9.03,4.35-8.36,12.2
							c0.45,5.34,3.57,7.98,6.25,9.26C390.98,1022.25,392.65,1022.49,393.05,1022.54z"/>
					</g>
				</g>
			</g>
			<g>
				<g>
					<g>
						<path class="st11" d="M393.05,1022.54l-0.67,6.14c-1.4-0.15-3.18-0.58-5.04-1.37l1.75-5.97
							C390.98,1022.25,392.65,1022.49,393.05,1022.54z"/>
					</g>
				</g>
			</g>
			<g>
				<g>
					<path class="st10" d="M401.05,1010.77l-11.52-3.46c-0.13-0.03-0.22-0.05-0.3-0.06c-1.1-0.13-2.04,0.55-2.33,1.64
						c-0.33,1.24,0.33,2.53,1.49,2.87c0.22,0.07,0.37,0.28,0.37,0.51c-0.01,0.16-0.09,0.35-0.22,0.44
						c-0.13,0.09-0.29,0.16-0.45,0.12c-0.52-0.16-1.06-0.1-1.54,0.17c-0.53,0.3-0.92,0.81-1.09,1.44l-0.17,0.63
						c-0.12,0.45,0.02,1.31,1.32,2.85c0.15,0.17,0.33,0.39,0.18,0.7c-0.1,0.2-0.31,0.32-0.52,0.28c-0.06-0.01-0.11-0.01-0.17-0.01
						c-0.95-0.04-1.83,0.6-2.12,1.56c-0.38,1.22,0.23,2.54,1.36,2.95l0.39,0.14c0.21,0.07,0.35,0.27,0.35,0.49
						c0,0.22-0.14,0.41-0.35,0.48c-0.7,0.23-1.25,0.84-1.44,1.58c-0.33,1.24,0.33,2.53,1.47,2.87l8.73,2.62
						c0.08,0.03,0.22,0.07,0.28,0.08c1.05,0.12,2.07-0.59,2.37-1.67c0.1-0.43,0.1-0.87-0.02-1.25c-0.05-0.16-0.09-0.32-0.16-0.43
						c-0.01-0.01-0.01-0.03-0.01-0.04c-0.36-0.18-0.72-0.36-1.07-0.53l-1.49-0.77c-0.5-0.22-0.99-0.51-1.51-0.69
						c1.12,0.1,2.2,0.49,3.27,0.8c0.45,0.14,0.88,0.31,1.31,0.46c0.24-0.02,0.48-0.06,0.68-0.15c0.59-0.26,1.04-0.77,1.24-1.39
						c0.31-0.98,0-2.04-0.77-2.63c-0.18-0.14-0.37-0.24-0.58-0.32c-0.04-0.02-0.06-0.06-0.1-0.08c-0.75-0.23-1.5-0.46-2.24-0.73
						l-1.56-0.55c-0.53-0.16-1.04-0.38-1.58-0.49c1.12-0.04,2.22,0.2,3.32,0.36c0.8,0.12,1.59,0.33,2.37,0.53
						c0.03,0,0.06-0.02,0.09-0.01c0.23,0.06,0.41,0.08,0.59,0.04c0.97-0.15,2.05-1.18,2.31-2.21l0.17-0.62
						c0.33-1.25-0.32-2.54-1.46-2.86l-0.13-0.05l0,0c-1.06-0.29-2.1-0.64-3.14-1.03l-1.56-0.55c-0.53-0.16-1.04-0.38-1.58-0.49
						c1.12-0.04,2.22,0.2,3.32,0.36c1.04,0.16,2.07,0.4,3.08,0.69c0.11-0.03,0.22-0.05,0.32-0.03c1,0.11,1.98-0.58,2.29-1.67
						C402.87,1012.39,402.2,1011.1,401.05,1010.77z"/>
				</g>
			</g>
			<g>
				<g>
					<path class="st10" d="M401.34,1009.79l-11.62-3.49c-0.13-0.03-0.28-0.06-0.39-0.07c-1.56-0.21-2.99,0.8-3.41,2.4
						c-0.32,1.17,0.01,2.39,0.76,3.21c-0.21,0.06-0.42,0.15-0.62,0.26c-0.78,0.44-1.34,1.17-1.58,2.07l-0.17,0.63
						c-0.28,1.1,0.41,2.31,1.02,3.14c-1.07,0.25-1.97,1.07-2.32,2.2c-0.48,1.54,0.13,3.15,1.41,3.94c-0.54,0.44-0.94,1.05-1.11,1.75
						c-0.47,1.77,0.5,3.61,2.17,4.11l8.72,2.61c0.18,0.06,0.41,0.14,0.51,0.12c0.08,0.01,0.16,0.02,0.24,0.02
						c1.43,0.05,2.78-0.96,3.2-2.45c0.15-0.62,0.14-1.24-0.02-1.78c0.16-0.04,0.31-0.09,0.45-0.16c0.86-0.38,1.51-1.11,1.8-2.02
						c0.37-1.19,0.09-2.46-0.68-3.34c1.16-0.44,2.24-1.59,2.55-2.8l0.17-0.61c0.34-1.27-0.05-2.56-0.89-3.38
						c0.95-0.35,1.71-1.17,2.02-2.27C404,1012.1,403.01,1010.26,401.34,1009.79z"/>
				</g>
			</g>
			<g>
				<g>
					<path class="st12" d="M401.99,1013.5c-0.15,0.53-0.53,0.98-1.02,1.16c0,0-0.59,0.22-0.59,0.22c-1.13,0.41-2.29-0.02-3.41-0.21
						c-0.55-0.09-1.11-0.18-1.67-0.26c-0.56-0.08-1.19-0.01-1.74-0.11c0.54,0.11,1.06,0.33,1.58,0.49c0.5,0.15,1,0.35,1.49,0.53
						c1.22,0.44,2.6,0.77,3.5,1.74c0.14,0.15,0.31,0.28,0.43,0.45c0.1,0.13,0.18,0.27,0.24,0.43c0.15,0.38,0.16,0.81,0.06,1.2
						l-0.17,0.59c-0.18,0.71-0.88,1.47-1.57,1.73c-0.95,0.36-1.56,0.48-2.57,0.24c-1.29-0.31-2.61-0.49-3.94-0.53
						c0.92,0.31,1.84,0.61,2.76,0.93c0.73,0.25,1.74,0.34,2.28,0.95c0.28,0.32,0.56,0.65,0.84,0.98c0.41,0.46,0.55,1.15,0.35,1.79
						c-0.15,0.46-0.48,0.84-0.91,1.03c-0.08,0.04-0.15,0.06-0.22,0.08c-0.77,0.21-1.27,0.28-2.04,0.01
						c-0.89-0.31-1.81-0.53-2.75-0.66c0.49,0.07,1.12,0.53,1.56,0.75c0.75,0.37,1.77,0.63,2.03,1.51c0.11,0.38,0.2,0.92,0.08,1.32
						c-0.22,0.72-0.86,1.25-1.54,1.25H395c-0.04,0-0.08-0.01-0.12-0.01h-0.05c-0.03-0.01-0.17-0.06-0.17-0.06l-8.72-2.61
						c-0.83-0.25-1.32-1.24-1.08-2.16c0.09-0.37,0.3-0.69,0.58-0.91l1.75-1.43l-1.93-1.18c-0.67-0.41-0.96-1.28-0.71-2.09
						c0.17-0.56,0.61-0.99,1.16-1.11l2.37-0.56l-1.45-1.96c-0.86-1.16-0.78-1.69-0.75-1.78l0.16-0.63c0.13-0.48,0.41-0.85,0.81-1.08
						c0.09-0.05,0.19-0.09,0.3-0.12l2.43-0.74l-1.71-1.88c-0.41-0.44-0.56-1.11-0.4-1.71c0.2-0.75,0.77-1.24,1.44-1.24
						c0.07,0,0.13,0.01,0.2,0.02l0.08,0.01l0.04,0.01c0.02,0,0.05,0.01,0.08,0.01l11.57,3.47
						C401.73,1011.57,402.22,1012.56,401.99,1013.5z"/>
				</g>
			</g>
			<g>
				<g>
					<g>
						<path class="st10" d="M487.26,1050.73c-0.26-0.02-0.53-0.04-0.8-0.08c0,0-0.18,0.28-0.61,0.55c0.14-0.77,0.26-1.52,0.35-2.27
							c0.13-1.07,0.21-2.15,0.21-3.21c-0.02-1.09-0.1-2.19-0.53-3.2c0.59,0.94,0.85,2.04,1.04,3.15c0.19,1.08,0.29,2.21,0.33,3.32
							C487.26,1049.56,487.27,1050.15,487.26,1050.73z"/>
					</g>
				</g>
			</g>
			<g>
				<g>
					<g>
						<path class="st10" d="M493,1047.21c-0.23,0.34-0.69,0.92-1.35,1.47c0.06-0.9,0.13-1.79,0.13-2.69
							c0.02-1.09-0.02-2.16-0.15-3.24c-0.13-1.07-0.34-2.14-0.86-3.11c0.67,0.86,1.07,1.93,1.39,3.01c0.29,1.07,0.53,2.17,0.67,3.26
							C492.9,1046.35,492.96,1046.77,493,1047.21z"/>
					</g>
				</g>
			</g>
			<g>
				<g>
					<g>
						<path class="st10" d="M496.3,1046.11c0.11-1.07,0.17-2.14,0.19-3.22c0.02-1.09-0.02-2.17-0.15-3.24
							c-0.15-1.05-0.34-2.14-0.88-3.11c0.69,0.88,1.07,1.95,1.39,3.01c0.32,1.07,0.53,2.16,0.67,3.26c0.06,0.44,0.13,0.9,0.17,1.35
							C497.45,1044.83,497.03,1045.6,496.3,1046.11z"/>
					</g>
				</g>
			</g>
			<g>
				<g>
					<g>
						<path class="st10" d="M478.88,1038.01c0.65,0.06,1.27,0.24,1.87,0.49c0.6,0.25,1.17,0.57,1.7,0.96
							c0.52,0.4,0.99,0.88,1.36,1.42c0.36,0.55,0.61,1.18,0.68,1.83c-0.32-0.56-0.66-1.07-1.06-1.53c-0.42-0.45-0.86-0.86-1.35-1.23
							c-0.48-0.38-1.01-0.7-1.54-1.03C480,1038.61,479.45,1038.31,478.88,1038.01z"/>
					</g>
				</g>
			</g>
			<g>
				<g>
					<g>
						<path class="st10" d="M482.88,1040.07c-0.02,0.04-0.19,0.32-0.48,0.71c-0.25,0.34-0.59,0.76-1.03,1.18
							c-0.5,0.5-1.11,1.01-1.85,1.41c-0.71,0.13-1.89,0.15-3.03-0.44v-0.29c1.51,0,2.77-0.84,3.64-1.68
							c0.02-0.02,0.02-0.02,0.04-0.02c0.59-0.57,0.99-1.11,1.18-1.43c0.1-0.15,0.17-0.23,0.17-0.23L482.88,1040.07z"/>
					</g>
				</g>
			</g>
			<g>
				<g>
					<path class="st4" d="M485.74,940.7c-1.19-0.31-2.75-0.67-4.51-0.98c-2.87-0.5-6.29-0.85-9.61-0.61
						c-2.3,0.16-4.54,0.62-6.53,1.51c-3.77,1.69-6.79,3.81-10.48,5.65c-0.26,0.13-0.52,0.26-0.78,0.38
						c-4.88,2.32-11.05,4.08-21.54,3.77c-10.49,0.31-16.65-1.45-21.54-3.77c-0.26-0.13-0.52-0.25-0.78-0.38
						c-3.69-1.84-6.71-3.96-10.48-5.65c-1.99-0.89-4.23-1.34-6.53-1.51c-3.32-0.24-6.74,0.11-9.61,0.62
						c-1.76,0.31-3.31,0.66-4.51,0.97c2.69-3.53,7.17-6.7,12.97-9.31c4.57-2.07,9.96-3.78,15.95-5.05
						c7.41-1.57,15.73-2.44,24.52-2.44c8.79,0,17.11,0.88,24.52,2.44c5.98,1.27,11.38,2.98,15.95,5.05
						C478.57,934,483.05,937.17,485.74,940.7z"/>
					<path class="st3" d="M429.97,951.26c-10.01,0-15.69-2.05-19.55-3.88c-0.27-0.13-0.54-0.26-0.8-0.39
						c-1.63-0.81-3.14-1.69-4.61-2.53c-1.93-1.11-3.75-2.17-5.83-3.1c-1.74-0.78-3.85-1.27-6.26-1.44c-2.8-0.2-5.97,0-9.42,0.6
						c-1.47,0.26-2.96,0.58-4.45,0.96l-2.24,0.57l1.41-1.84c2.73-3.57,7.32-6.87,13.28-9.55c4.65-2.1,10.07-3.82,16.11-5.1
						c7.73-1.63,16.03-2.46,24.69-2.46c8.65,0,16.96,0.83,24.69,2.46c6.04,1.28,11.46,3,16.12,5.1c6.06,2.73,10.53,5.94,13.28,9.56
						l1.41,1.85l-2.25-0.59c-0.99-0.26-2.56-0.63-4.45-0.97c-3.46-0.6-6.62-0.8-9.41-0.6c-2.41,0.17-4.52,0.66-6.26,1.44
						c-2.09,0.94-3.92,1.99-5.85,3.11c-1.46,0.84-2.97,1.72-4.6,2.53l-0.79,0.39c-4.16,1.97-10.4,4.19-21.91,3.85
						C431.48,951.25,430.72,951.26,429.97,951.26z M432.28,949.62c11.21,0.33,17.23-1.8,21.22-3.69l0.77-0.38
						c1.58-0.79,3.07-1.65,4.51-2.48c1.88-1.09,3.83-2.21,5.99-3.19c1.91-0.86,4.2-1.39,6.8-1.58c2.91-0.21,6.21,0,9.8,0.62
						c0.76,0.13,1.48,0.28,2.13,0.41c-2.62-2.65-6.39-5.12-11.05-7.22c-4.55-2.06-9.86-3.74-15.79-5
						c-7.62-1.61-15.82-2.42-24.35-2.42c-8.54,0-16.74,0.82-24.36,2.42c-5.93,1.26-11.24,2.94-15.79,4.99
						c-4.66,2.1-8.43,4.57-11.06,7.23c0.71-0.15,1.42-0.29,2.12-0.41c3.58-0.63,6.88-0.84,9.81-0.62c2.6,0.19,4.89,0.72,6.8,1.57
						c2.16,0.97,4.1,2.09,5.98,3.18c1.44,0.83,2.93,1.7,4.52,2.49c0.26,0.13,0.51,0.25,0.77,0.38
						C415.1,947.82,421.11,949.95,432.28,949.62z"/>
				</g>
			</g>
			<g>
				<path class="st14" d="M417.18,1113.15c-1.36,0.83-5.34,1.99-5.34,1.99l-3.92-0.64c0,0,1.07,2.59-5.74,3.39
					c-6.82,0.8-19.05-1.14-19.2-2.24l0.01-0.1c0.08-0.64,0.61-1.14,1.26-1.2l0,0c0,0-0.02-0.05-0.03-0.13
					c1.08,0.58,2.25,0.97,3.43,1.27c1.32,0.33,2.67,0.54,4.02,0.67c1.4,0.14,2.81,0.19,4.21,0.19c1.34,0,2.68-0.06,4.02-0.17
					c1.15-0.09,2.3-0.23,3.44-0.41c0.53-0.09,1.07-0.18,1.59-0.3c0.58-0.13,1.23-0.22,1.73-0.56c0.36-0.25,0.56-0.66,0.84-1
					c0.28-0.35,0.58-0.67,0.9-0.99c0.45-0.46,0.93-0.89,1.42-1.31c0.55-0.48,1.13-1.02,1.75-1.42c0,0,5.79-3.65,5.79-3.65
					c-0.01,0.04-0.02,0.07-0.03,0.1c0,0,0.5,0.2,0.46,1.19C417.75,1108.84,418.54,1112.32,417.18,1113.15z"/>
				<path class="st15" d="M417.34,1106.55l-5.79,3.65c-1.05,0.78-2.05,1.63-2.98,2.54c-0.32,0.31-0.63,0.64-0.92,0.98
					c-0.26,0.31-0.43,0.69-0.73,0.97c-0.52,0.5-1.18,0.59-1.86,0.75c-0.59,0.14-1.2,0.25-1.8,0.35c-1.58,0.25-3.18,0.41-4.77,0.5
					c-1.85,0.1-3.71,0.11-5.57-0.01c-1.83-0.12-3.65-0.35-5.43-0.8c-0.59-0.15-1.17-0.33-1.74-0.54c-0.27-0.1-0.54-0.21-0.8-0.33
					c-0.1-0.05-0.74-0.27-0.75-0.37c-0.08-0.47,0.01-2.14,4.56-3.97c1.56-0.63,3.16-1.27,4.55-2.24c1.49-1.05,2.56-2.52,3.81-3.82
					c1.41-1.46,2.82-3.3,3.4-5.26c0.16-0.54,0.26-1.09,0.32-1.64c0.38-0.37,0.77-0.86,0.75-1.26c-0.03-0.8,0.07-1.96,0.93-1.72
					c0.86,0.23,1.39,1.89,1.36,2.32c-0.03,0.43,1.96,2.09,1.96,2.75c0,0.66-1.36,2.09-0.33,3.55c1.03,1.46,1.83,2.26,5.54,0
					c3.13-1.9,4.4-2.44,5.52-4.29c0.07,0.56,0.19,1.12,0.38,1.73C417.59,1102.43,417.58,1105.53,417.34,1106.55z"/>
				<path class="st16" d="M405.56,1074.31l-0.05,0.05c0-0.02,0.02-0.03,0.03-0.05C405.54,1074.31,405.54,1074.31,405.56,1074.31z"/>
				<path class="st17" d="M410.56,1071.26c-2.02,0.92-3.59,1.92-4.83,2.91c-0.06,0.05-0.11,0.1-0.17,0.14l-0.05,0.05
					c-0.16,0.13-0.3,0.25-0.44,0.38c-0.14,0.13-0.27,0.25-0.41,0.38c-0.78,0.75-1.38,1.48-1.84,2.16c-0.06,0.11-0.13,0.21-0.19,0.3
					c-0.24,0.37-0.43,0.73-0.57,1.06c-0.11,0.22-0.19,0.43-0.27,0.62c-0.16,0.43-0.25,0.79-0.32,1.1c-0.03,0.11-0.05,0.22-0.06,0.32
					v0.05c-0.02,0.1-0.03,0.17-0.03,0.25c-0.02,0.14-0.02,0.22-0.02,0.22c-0.73-0.43-1.29-1.37-1.7-2.33
					c-0.02-0.17-0.02-0.27-0.02-0.27s-2.94-5.22,2.1-8.53c0.06-0.05,0.13-0.08,0.19-0.11c0.05-0.03,0.08-0.06,0.13-0.1
					c0.16-0.08,0.32-0.17,0.48-0.25c0,0,0.02,0,0.06-0.02c0.21-0.05,0.89-0.16,1.6-0.19c0.48-0.03,0.95-0.02,1.29,0.08
					c0.1,0.03,0.19,0.08,0.25,0.13C405.73,1069.61,409.05,1069.99,410.56,1071.26z"/>
				<path class="st18" d="M405.51,1070.01v4.34c-1.23,1.02-2.09,2.02-2.7,2.93c-0.06,0.1-0.13,0.19-0.18,0.29
					c0.06-0.7,0.06-1.43,0.1-2.1c0.07-1.36,0.16-2.71,0.11-4.07c0-0.02,0-0.04,0-0.06c-0.01-0.3,0.02-0.6-0.06-0.89
					c-0.03-0.13-0.09-0.25-0.19-0.34c-0.24-0.21-0.56-0.11-0.84-0.04c-0.02,0.01-0.04,0.01-0.06,0.02c0,0-0.01,0-0.02,0
					c0-0.04,0.03-0.17,0.03-0.21c0.06-0.25,0.23-0.37,0.44-0.51c0.27-0.19,0.6-0.31,0.92-0.39c0.41-0.1,0.83-0.14,1.25-0.15
					c0.79-0.01,1.08,0.33,1.18,0.65C405.56,1069.76,405.51,1070.01,405.51,1070.01z"/>
				<g>
					<g>
						<g>
							<path class="st16" d="M416.48,1094.14c0,1.84-0.1,3.14,0.08,4.51c-1.11,1.86-2.38,2.38-5.51,4.29
								c-3.72,2.25-4.51,1.46-5.54,0c-1.03-1.46,0.33-2.89,0.33-3.54c0-0.67-2-2.33-1.97-2.76c0.05-0.43-0.49-2.1-1.35-2.32
								c-0.87-0.24-0.97,0.92-0.94,1.73c0.02,0.4-0.37,0.87-0.75,1.25c0.14-1.4,0.02-2.83-0.16-4.24c-0.02-0.13-0.03-0.25-0.05-0.38
								c-0.46-3.51-0.9-12.18-0.98-13.81c0.41,0.97,0.97,1.91,1.7,2.33c0,0,0-0.08,0.02-0.22c0-0.08,0.02-0.16,0.03-0.25v-0.05
								c0.02-0.1,0.03-0.21,0.06-0.32c0.06-0.3,0.16-0.67,0.32-1.1c0.08-0.19,0.16-0.4,0.27-0.62c0.14-0.33,0.33-0.7,0.57-1.06
								c0.06-0.1,0.13-0.19,0.19-0.3c0.27-0.41,0.6-0.84,1-1.29c0.25-0.29,0.54-0.57,0.84-0.87c0.14-0.13,0.27-0.25,0.41-0.38
								c0.13-0.11,0.27-0.24,0.41-0.35c0-0.02,0.03-0.03,0.03-0.03l0.05-0.05c0.06-0.05,0.11-0.1,0.17-0.14
								c1.24-0.98,2.81-1.98,4.83-2.91c0.03,0.02,0.06,0.05,0.1,0.06c0,0,0.97-0.32,2.24-0.54c2.75-0.51,6.84-0.54,5.26,4.13
								C417.42,1080.22,416.48,1091.57,416.48,1094.14z"/>
							<path class="st19" d="M426.85,1055.18c-5.35,4.05-12.46,9.67-13.96,15.61c-1.27,0.22-2.24,0.54-2.24,0.54
								c-0.03-0.02-0.06-0.05-0.1-0.06c-2.02,0.92-3.59,1.92-4.83,2.91c-0.06,0.05-0.11,0.1-0.17,0.14c-0.02,0-0.02,0-0.02,0
								c-0.02,0.02-0.03,0.03-0.03,0.05c0,0-0.03,0.02-0.03,0.03c-0.14,0.11-0.29,0.24-0.41,0.35c-0.14,0.13-0.27,0.25-0.41,0.38
								c-0.3,0.3-0.59,0.59-0.84,0.87h-0.02c-0.22-1.54,0.02-5,0.4-6.59c2.1-8.76,12.27-17.72,17.66-21.29h0.22L426.85,1055.18z"/>
						</g>
					</g>
				</g>
				<path class="st18" d="M415.26,1071.03v8.32c0,0-3.28,0.99-3.08,0.46c0-0.01,0.01-0.03,0.01-0.04c0.26-1.04,0.23-2.23,0.29-3.29
					c0.07-1.36,0.16-2.71,0.11-4.07c0-0.02,0-0.04,0-0.06c-0.01-0.3,0.02-0.6-0.06-0.89c-0.03-0.13-0.09-0.25-0.19-0.34
					c-0.26-0.23-0.61-0.09-0.91-0.02c0,0-0.01,0-0.02,0c0-0.04,0.02-0.17,0.03-0.21c0.06-0.25,0.23-0.37,0.44-0.51
					c0.27-0.19,0.6-0.31,0.92-0.39c0.41-0.1,0.83-0.14,1.25-0.15C415.51,1069.84,415.26,1071.03,415.26,1071.03z"/>
			</g>
			<g>
				<path class="st14" d="M445.45,1113.15c1.36,0.83,5.34,1.99,5.34,1.99l3.92-0.64c0,0-1.07,2.59,5.74,3.39
					c6.82,0.8,19.05-1.14,19.2-2.24l-0.01-0.1c-0.08-0.64-0.61-1.14-1.26-1.2l0,0c0,0,0.02-0.05,0.03-0.13
					c-1.08,0.58-2.25,0.97-3.43,1.27c-1.32,0.33-2.67,0.54-4.02,0.67c-1.4,0.14-2.81,0.19-4.21,0.19c-1.34,0-2.68-0.06-4.02-0.17
					c-1.15-0.09-2.3-0.23-3.44-0.41c-0.53-0.09-1.07-0.18-1.59-0.3c-0.58-0.13-1.23-0.22-1.73-0.56c-0.36-0.25-0.56-0.66-0.84-1
					c-0.28-0.35-0.58-0.67-0.9-0.99c-0.45-0.46-0.93-0.89-1.42-1.31c-0.55-0.48-1.13-1.02-1.75-1.42c0,0-5.79-3.65-5.79-3.65
					c0.01,0.04,0.02,0.07,0.03,0.1c0,0-0.5,0.2-0.46,1.19C444.89,1108.84,444.09,1112.32,445.45,1113.15z"/>
				<path class="st15" d="M445.29,1106.55l5.79,3.65c1.05,0.78,2.05,1.63,2.98,2.54c0.32,0.31,0.63,0.64,0.92,0.98
					c0.26,0.31,0.43,0.69,0.73,0.97c0.52,0.5,1.18,0.59,1.86,0.75c0.59,0.14,1.2,0.25,1.8,0.35c1.58,0.25,3.18,0.41,4.77,0.5
					c1.85,0.1,3.71,0.11,5.57-0.01c1.83-0.12,3.65-0.35,5.43-0.8c0.59-0.15,1.17-0.33,1.74-0.54c0.27-0.1,0.54-0.21,0.8-0.33
					c0.1-0.05,0.74-0.27,0.75-0.37c0.08-0.47-0.01-2.14-4.56-3.97c-1.56-0.63-3.16-1.27-4.55-2.24c-1.49-1.05-2.56-2.52-3.81-3.82
					c-1.41-1.46-2.82-3.3-3.4-5.26c-0.16-0.54-0.26-1.09-0.32-1.64c-0.38-0.37-0.77-0.86-0.75-1.26c0.03-0.8-0.07-1.96-0.93-1.72
					c-0.86,0.23-1.39,1.89-1.36,2.32c0.03,0.43-1.96,2.09-1.96,2.75c0,0.66,1.36,2.09,0.33,3.55c-1.03,1.46-1.83,2.26-5.54,0
					c-3.13-1.9-4.4-2.44-5.52-4.29c-0.07,0.56-0.19,1.12-0.38,1.73C445.05,1102.43,445.06,1105.53,445.29,1106.55z"/>
				<path class="st16" d="M457.08,1074.31l0.05,0.05c0-0.02-0.02-0.03-0.03-0.05C457.09,1074.31,457.09,1074.31,457.08,1074.31z"/>
				<path class="st17" d="M452.08,1071.26c2.02,0.92,3.59,1.92,4.83,2.91c0.06,0.05,0.11,0.1,0.17,0.14l0.05,0.05
					c0.16,0.13,0.3,0.25,0.44,0.38c0.14,0.13,0.27,0.25,0.41,0.38c0.78,0.75,1.38,1.48,1.84,2.16c0.06,0.11,0.13,0.21,0.19,0.3
					c0.24,0.37,0.43,0.73,0.57,1.06c0.11,0.22,0.19,0.43,0.27,0.62c0.16,0.43,0.25,0.79,0.32,1.1c0.03,0.11,0.05,0.22,0.06,0.32
					v0.05c0.02,0.1,0.03,0.17,0.03,0.25c0.02,0.14,0.02,0.22,0.02,0.22c0.73-0.43,1.29-1.37,1.7-2.33c0.02-0.17,0.02-0.27,0.02-0.27
					s2.94-5.22-2.1-8.53c-0.06-0.05-0.13-0.08-0.19-0.11c-0.05-0.03-0.08-0.06-0.13-0.1c-0.16-0.08-0.32-0.17-0.48-0.25
					c0,0-0.02,0-0.06-0.02c-0.21-0.05-0.89-0.16-1.6-0.19c-0.48-0.03-0.95-0.02-1.29,0.08c-0.1,0.03-0.19,0.08-0.25,0.13
					C456.9,1069.61,453.58,1069.99,452.08,1071.26z"/>
				<path class="st18" d="M457.13,1070.01v4.34c1.23,1.02,2.09,2.02,2.7,2.93c0.06,0.1,0.13,0.19,0.18,0.29
					c-0.06-0.7-0.06-1.43-0.1-2.1c-0.07-1.36-0.16-2.71-0.11-4.07c0-0.02,0-0.04,0-0.06c0.01-0.3-0.02-0.6,0.06-0.89
					c0.03-0.13,0.09-0.25,0.19-0.34c0.24-0.21,0.56-0.11,0.84-0.04c0.02,0.01,0.04,0.01,0.06,0.02c0,0,0.01,0,0.02,0
					c0-0.04-0.03-0.17-0.03-0.21c-0.06-0.25-0.23-0.37-0.44-0.51c-0.27-0.19-0.6-0.31-0.92-0.39c-0.41-0.1-0.83-0.14-1.25-0.15
					c-0.79-0.01-1.08,0.33-1.18,0.65C457.07,1069.76,457.13,1070.01,457.13,1070.01z"/>
				<g>
					<g>
						<g>
							<path class="st16" d="M446.15,1094.14c0,1.84,0.1,3.14-0.08,4.51c1.11,1.86,2.38,2.38,5.51,4.29c3.72,2.25,4.51,1.46,5.54,0
								c1.03-1.46-0.33-2.89-0.33-3.54c0-0.67,2-2.33,1.97-2.76c-0.05-0.43,0.49-2.1,1.35-2.32c0.87-0.24,0.97,0.92,0.94,1.73
								c-0.02,0.4,0.37,0.87,0.75,1.25c-0.14-1.4-0.02-2.83,0.16-4.24c0.02-0.13,0.03-0.25,0.05-0.38
								c0.46-3.51,0.9-12.18,0.98-13.81c-0.41,0.97-0.97,1.91-1.7,2.33c0,0,0-0.08-0.02-0.22c0-0.08-0.02-0.16-0.03-0.25v-0.05
								c-0.02-0.1-0.03-0.21-0.06-0.32c-0.06-0.3-0.16-0.67-0.32-1.1c-0.08-0.19-0.16-0.4-0.27-0.62c-0.14-0.33-0.33-0.7-0.57-1.06
								c-0.06-0.1-0.13-0.19-0.19-0.3c-0.27-0.41-0.6-0.84-1-1.29c-0.25-0.29-0.54-0.57-0.84-0.87c-0.14-0.13-0.27-0.25-0.41-0.38
								c-0.13-0.11-0.27-0.24-0.41-0.35c0-0.02-0.03-0.03-0.03-0.03l-0.05-0.05c-0.06-0.05-0.11-0.1-0.17-0.14
								c-1.24-0.98-2.81-1.98-4.83-2.91c-0.03,0.02-0.06,0.05-0.1,0.06c0,0-0.97-0.32-2.24-0.54c-2.75-0.51-6.84-0.54-5.26,4.13
								C445.22,1080.22,446.15,1091.57,446.15,1094.14z"/>
							<path class="st19" d="M435.79,1055.18c5.35,4.05,12.46,9.67,13.96,15.61c1.27,0.22,2.24,0.54,2.24,0.54
								c0.03-0.02,0.06-0.05,0.1-0.06c2.02,0.92,3.59,1.92,4.83,2.91c0.06,0.05,0.11,0.1,0.17,0.14c0.02,0,0.02,0,0.02,0
								c0.02,0.02,0.03,0.03,0.03,0.05c0,0,0.03,0.02,0.03,0.03c0.14,0.11,0.29,0.24,0.41,0.35c0.14,0.13,0.27,0.25,0.41,0.38
								c0.3,0.3,0.59,0.59,0.84,0.87h0.02c0.22-1.54-0.02-5-0.4-6.59c-2.1-8.76-12.27-17.72-17.66-21.29h-0.22L435.79,1055.18z"/>
						</g>
					</g>
				</g>
				<path class="st18" d="M447.38,1071.03v8.32c0,0,3.28,0.99,3.08,0.46c0-0.01-0.01-0.03-0.01-0.04c-0.26-1.04-0.23-2.23-0.29-3.29
					c-0.07-1.36-0.16-2.71-0.11-4.07c0-0.02,0-0.04,0-0.06c0.01-0.3-0.02-0.6,0.06-0.89c0.03-0.13,0.09-0.25,0.19-0.34
					c0.26-0.23,0.61-0.09,0.91-0.02c0,0,0.01,0,0.02,0c0-0.04-0.02-0.17-0.03-0.21c-0.06-0.25-0.23-0.37-0.44-0.51
					c-0.27-0.19-0.6-0.31-0.92-0.39c-0.41-0.1-0.83-0.14-1.25-0.15C447.13,1069.84,447.38,1071.03,447.38,1071.03z"/>
			</g>
			<g>
				<g>
					<path class="st20" d="M452.42,1052.4v0.96c0,1.27-0.64,2.39-1.61,3.07c-0.6,0.42-1.33,0.66-2.12,0.66h-34.73
						c-0.79,0-1.52-0.25-2.12-0.66c-0.98-0.67-1.61-1.8-1.61-3.07v-0.96c0-2.06,1.67-3.74,3.74-3.74h34.73
						C450.74,1048.66,452.42,1050.34,452.42,1052.4z"/>
					<path class="st3" d="M448.69,1057.73h-34.73c-0.89,0-1.76-0.27-2.49-0.78c-1.18-0.81-1.89-2.16-1.89-3.6v-0.96
						c0-2.42,1.97-4.38,4.38-4.38h34.73c2.41,0,4.38,1.97,4.38,4.38v0.96c0,1.43-0.7,2.77-1.88,3.6
						C450.45,1057.46,449.59,1057.73,448.69,1057.73z M413.95,1049.31c-1.7,0-3.09,1.39-3.09,3.09v0.96c0,1.01,0.5,1.96,1.33,2.53
						c0.52,0.36,1.13,0.55,1.76,0.55h34.73c0.64,0,1.24-0.19,1.75-0.55c0.83-0.58,1.33-1.53,1.33-2.54v-0.96
						c0-1.7-1.38-3.09-3.08-3.09H413.95z"/>
				</g>
			</g>
			<g>
				<g>
					<g>
						<g>
							<g>
								<g>
									<path class="st3" d="M443.82,973c-2.92,0.12-3.88-1.14-2.72-3.59c0.42-0.89,1.08-1.44,2.1-1.39
										c5.08,0.24,9.03,2.56,12.06,6.56c0.31,0.41,0.62,0.95,0.17,1.44c-0.51,0.56-1.09,0.24-1.59-0.05
										c-2.29-1.35-4.73-2.31-7.35-2.8C445.6,973.01,444.72,973,443.82,973z"/>
								</g>
							</g>
							<g>
								<g>
									<path class="st3" d="M419.45,967.38c3.88-0.01,4.96,1.13,4.54,3.68c-0.17,1.06-0.75,1.73-1.85,1.44
										c-4.01-1.04-7.76-0.13-11.46,1.34c-0.53,0.21-1.15,0.54-1.57-0.13c-0.4-0.63,0.1-1.14,0.48-1.54
										C412.55,969.05,416.3,967.7,419.45,967.38z"/>
								</g>
							</g>
						</g>
					</g>
					<g>
						<circle class="st3" cx="418.76" cy="984.84" r="4.52"/>
						<circle class="st3" cx="445.88" cy="984.84" r="4.52"/>
					</g>
				</g>
				<g>
					<g>
						<path class="st21" d="M432.32,1014.99c0,0-9.57,0.11-16.72-5.15l-1.42,2.05l5.63,2.58c0,0,4.73,12.57,12.51,12.51
							c7.78,0.05,12.51-12.51,12.51-12.51l5.63-2.58l-1.42-2.05C441.89,1015.09,432.32,1014.99,432.32,1014.99z"/>
					</g>
					<g>
						<path class="st22" d="M439.52,1020.4c-1.9,2.57-4.38,4.78-7.15,4.78h-0.04c-2.93,0-5.52-2.41-7.47-5.13
							C428.07,1018.54,433.39,1017.19,439.52,1020.4z"/>
					</g>
					<g>
						<path class="st21" d="M453.4,1014.1c-0.07,0-0.14-0.01-0.21-0.03c-5.98-1.84-5.23-7.16-5.22-7.22
							c0.06-0.38,0.42-0.65,0.8-0.59c0.38,0.06,0.64,0.42,0.59,0.8c-0.03,0.18-0.55,4.19,4.24,5.66c0.37,0.11,0.58,0.51,0.46,0.88
							C453.98,1013.9,453.7,1014.1,453.4,1014.1z"/>
					</g>
					<g>
						<path class="st22" d="M424.87,1020.06c3.21-1.52,8.53-2.87,14.66,0.35"/>
					</g>
					<g>
						<g>
							<path class="st21" d="M411.24,1014.1c-0.3,0-0.58-0.19-0.67-0.5c-0.11-0.37,0.09-0.76,0.46-0.88
								c4.8-1.47,4.27-5.49,4.24-5.66c-0.06-0.38,0.21-0.74,0.59-0.8c0.38-0.06,0.74,0.2,0.8,0.59c0.01,0.05,0.76,5.38-5.22,7.22
								C411.38,1014.09,411.31,1014.1,411.24,1014.1z"/>
						</g>
					</g>
				</g>
			</g>
			<g>
				<g class="st23">
					<g>
						<path class="st24" d="M403.84,959.01l0,1.24c-9.22,0-17.22,6.26-19.46,15.22c-1.17,4.67-0.62,9.61,1.54,13.9
							c2.14,4.25,5.73,7.61,10.09,9.46l0.02,0.01l0.02,0.01c0.31,0.14,0.65,0.27,0.94,0.37c0.65,0.23,1.32,0.43,1.96,0.59
							c0.7,0.18,1.38,0.31,2.04,0.41c0.29,0.04,0.66,0.09,1.01,0.12c0.63,0.06,1.23,0.08,1.83,0.08c9.22,0,17.23-6.25,19.47-15.2
							c2.69-10.74-3.85-21.68-14.59-24.37c-1.6-0.4-3.25-0.61-4.88-0.61h0L403.84,959.01C403.84,959.01,403.84,959.01,403.84,959.01
							L403.84,959.01z"/>
					</g>
				</g>
				<g class="st23">
					<g>
						<path class="st13" d="M409.32,958.45c-1.84-0.46-3.67-0.68-5.49-0.68v1.24l0,1.24h0c1.64,0,3.28,0.2,4.88,0.61
							c10.74,2.69,17.28,13.62,14.59,24.37c-2.24,8.95-10.25,15.2-19.47,15.2c-0.6,0-1.2-0.03-1.83-0.08
							c-0.36-0.03-0.72-0.08-1.01-0.12c-0.67-0.1-1.35-0.24-2.04-0.41c-0.64-0.16-1.31-0.36-1.96-0.59
							c-0.29-0.11-0.63-0.23-0.94-0.37l-0.02-0.01l-0.02-0.01c-4.36-1.85-7.95-5.21-10.09-9.46c-2.17-4.29-2.71-9.23-1.54-13.9
							c2.24-8.96,10.25-15.22,19.46-15.22l0-1.24l0-1.24c0,0,0,0,0,0c-10.1,0-19.29,6.84-21.86,17.09
							c-2.74,10.92,3,21.97,13.07,26.24c0.36,0.16,0.73,0.3,1.1,0.44c0.72,0.25,1.46,0.48,2.22,0.67c0.75,0.19,1.52,0.35,2.27,0.46
							c0.4,0.06,0.78,0.11,1.18,0.14c0.68,0.06,1.35,0.09,2.02,0.09c10.11,0,19.3-6.83,21.87-17.07
							C428.74,973.73,421.4,961.48,409.32,958.45z"/>
					</g>
				</g>
			</g>
		</g>
	</g>
</g>
</svg>
